<?xml version="1.0" standalone="no"?>
<!DOCTYPE svg PUBLIC "-//W3C//DTD SVG 20010904//EN"
 "http://www.w3.org/TR/2001/REC-SVG-20010904/DTD/svg10.dtd">
<svg version="1.0" xmlns="http://www.w3.org/2000/svg"
 width="768.000000pt" height="768.000000pt" viewBox="0 0 768.000000 768.000000"
 preserveAspectRatio="xMidYMid meet">
<g transform="translate(0.000000,768.000000) scale(0.100000,-0.100000)"
fill="#000000" stroke="none">
<path d="M3090 7320 c-34 -10 -120 -55 -145 -75 l-20 -17 20 7 c11 3 43 9 70
11 l50 5 -36 -33 c-20 -18 -92 -67 -160 -108 -170 -102 -259 -172 -371 -288
-174 -181 -288 -383 -379 -667 -87 -274 -194 -602 -263 -801 -126 -368 -195
-698 -142 -681 21 7 36 78 46 211 10 153 34 241 64 241 23 0 32 -26 46 -140 7
-58 40 -487 40 -521 0 -2 12 1 26 6 47 18 57 13 50 -22 -8 -38 -43 -97 -93
-158 l-38 -44 36 22 c20 12 41 22 48 22 23 0 11 -65 -23 -120 -43 -70 -81
-185 -141 -425 -54 -216 -80 -274 -168 -373 -33 -37 -68 -86 -79 -110 -18 -40
-18 -45 -4 -67 9 -13 28 -25 43 -27 20 -2 33 -13 45 -38 l18 -35 0 72 c0 79
12 123 34 123 24 0 41 -31 42 -79 1 -26 19 -91 43 -153 64 -168 54 -201 -69
-233 -77 -20 -110 -46 -110 -89 -1 -108 -115 -206 -226 -193 -97 11 -113 -23
-26 -55 67 -25 81 -50 63 -116 -28 -106 -114 -215 -227 -288 -94 -61 -120 -93
-164 -207 -49 -129 -89 -195 -110 -182 -4 3 -3 23 3 46 9 38 8 43 -13 59 l-24
18 47 42 c45 41 58 72 37 85 -6 3 -13 -2 -16 -12 -12 -38 -22 -47 -66 -59
-144 -37 -437 -279 -553 -458 -96 -148 -145 -272 -208 -522 -60 -236 -79 -362
-66 -423 8 -38 8 -64 0 -96 -24 -97 57 -205 174 -229 47 -9 375 -24 780 -36
415 -12 1739 -40 1884 -40 l94 0 -84 88 c-193 200 -220 257 -319 677 -69 295
-70 306 -34 340 16 15 59 45 95 66 139 83 173 141 172 294 0 55 -10 156 -22
225 -34 200 -50 327 -44 349 3 12 13 21 23 21 24 0 118 -101 126 -136 13 -53
36 -88 109 -165 48 -51 77 -91 87 -120 13 -40 19 -45 60 -57 29 -8 58 -26 79
-49 146 -159 181 -170 342 -107 91 36 179 56 310 69 45 4 87 16 123 35 70 37
77 30 99 -97 30 -173 42 -193 125 -193 61 -1 121 -24 143 -55 23 -31 28 -31
124 0 43 13 81 21 86 16 10 -10 -21 -48 -153 -186 -110 -116 -208 -236 -246
-301 -17 -29 -36 -88 -51 -163 -41 -199 -83 -459 -83 -510 l0 -48 53 -7 c28
-3 606 -9 1282 -12 1603 -8 1999 4 2147 68 58 25 105 75 144 154 28 58 29 63
32 243 5 256 -27 495 -108 797 -73 273 -148 432 -255 539 -144 146 -442 311
-900 500 -322 133 -601 272 -660 328 -54 52 -60 81 -15 75 27 -4 29 -3 18 12
-7 9 -35 46 -62 81 -27 35 -69 106 -93 157 -50 107 -72 132 -112 132 -44 0
-61 23 -61 85 0 30 -8 72 -19 97 -10 24 -40 120 -66 212 -27 92 -56 177 -66
189 l-17 21 -33 -37 c-18 -20 -37 -37 -42 -37 -6 0 -7 34 -1 93 10 115 8 191
-6 195 -27 9 -40 36 -40 81 0 87 27 131 79 131 28 0 27 11 -10 104 -17 43 -28
85 -25 92 3 8 17 19 31 24 26 10 26 11 23 108 l-3 97 28 3 c19 2 32 12 39 30
13 30 18 475 6 488 -4 4 -15 1 -24 -7 -36 -30 -72 56 -99 239 -8 57 -21 114
-28 125 -10 19 -13 11 -18 -61 -4 -46 -11 -88 -17 -94 -31 -31 -80 69 -145
297 -67 234 -85 309 -102 425 -19 124 -42 229 -55 250 -9 13 -13 11 -29 -9
-10 -13 -23 -21 -29 -17 -6 3 -23 43 -38 89 -15 45 -40 109 -57 142 -31 63
-116 189 -123 182 -5 -5 36 -123 80 -229 29 -71 36 -99 36 -155 0 -82 -27
-324 -38 -335 -11 -11 -24 2 -60 57 -23 35 -31 43 -27 25 16 -80 26 -173 32
-312 8 -200 7 -203 -100 -211 -80 -6 -111 -17 -121 -43 -9 -23 9 -41 52 -55
84 -26 107 -66 55 -93 -16 -7 -83 -19 -150 -25 -67 -6 -154 -18 -193 -26 -80
-17 -140 -19 -140 -6 0 10 52 36 93 46 15 4 27 12 27 17 0 7 -29 9 -80 6 -63
-4 -87 -9 -108 -27 -45 -36 -72 -46 -90 -34 -49 30 -9 66 148 128 124 49 149
62 183 93 53 50 26 72 -87 72 -182 0 -310 -113 -352 -309 -29 -140 -13 -240
46 -271 31 -16 36 -6 22 45 -17 64 -15 88 9 119 20 26 87 66 109 66 6 0 8 -10
4 -26 l-7 -26 54 8 c97 14 101 12 152 -61 21 -29 47 -31 174 -13 87 13 104 9
83 -17 -25 -30 -71 -46 -168 -59 l-97 -13 35 -16 c55 -24 164 -30 321 -18 79
7 157 15 173 18 l29 5 -6 -178 c-6 -196 -13 -239 -42 -239 -10 0 -26 13 -35
30 -15 26 -22 30 -61 30 -57 0 -63 -24 -18 -66 l32 -30 -6 -120 c-10 -171 -34
-323 -64 -393 -33 -80 -133 -266 -142 -266 -4 0 -25 23 -46 52 -55 71 -108
108 -157 108 -46 0 -78 15 -78 36 0 17 -27 29 -94 38 -32 5 -57 16 -74 33 -50
50 -112 52 -112 3 0 -33 34 -52 82 -45 l44 7 -4 -34 c-3 -27 4 -44 32 -81 20
-26 36 -49 36 -52 0 -10 -43 -5 -97 11 -56 16 -94 15 -213 -5 -71 -12 -311
-13 -330 -1 -8 5 -13 22 -12 42 3 51 -10 62 -70 62 -75 -1 -133 -33 -148 -80
-14 -43 -68 -105 -115 -134 -25 -16 -39 -18 -57 -11 -32 12 -218 209 -268 284
-49 72 -56 118 -41 261 15 149 14 207 -4 232 -8 12 -41 31 -73 43 -33 12 -75
35 -93 51 -75 61 -119 198 -117 365 1 99 8 135 31 149 15 9 29 -1 95 -71 75
-80 79 -83 123 -83 64 0 131 26 174 66 38 36 52 39 147 35 55 -3 60 -1 90 32
18 19 42 47 53 62 23 30 40 32 115 11 72 -21 218 -22 226 -1 3 8 -9 55 -27
105 -36 102 -65 135 -159 179 -46 22 -69 26 -146 26 -82 0 -94 -3 -132 -28
-76 -50 -49 -80 81 -93 37 -3 67 -9 67 -13 0 -3 -18 -14 -40 -24 -22 -10 -40
-25 -40 -32 0 -23 -21 -29 -140 -37 -63 -4 -137 -14 -165 -22 -94 -26 -116 27
-45 109 45 52 44 49 30 76 -29 53 -111 3 -221 -134 -39 -49 -73 -87 -75 -84
-6 6 15 438 26 552 13 124 32 200 66 267 32 63 74 173 74 193 0 12 -8 14 -40
9 -22 -4 -40 -3 -40 2 0 23 100 279 110 282 6 2 24 -11 40 -29 l27 -33 21 40
c42 82 179 181 292 210 56 14 83 15 220 5 157 -12 287 -4 330 19 26 14 25 42
-1 66 -27 24 -51 78 -43 98 11 28 49 17 104 -30 54 -46 55 -46 115 -41 51 5
63 3 82 -15 17 -16 42 -22 125 -28 107 -9 175 -28 268 -75 129 -65 181 -121
279 -303 68 -125 110 -192 122 -192 13 0 11 15 -10 105 -32 130 -70 224 -102
248 -24 17 -29 28 -29 65 0 46 13 80 38 98 20 14 7 32 -100 133 -111 105 -116
141 -17 123 30 -6 56 -8 58 -6 12 11 -51 57 -147 107 -137 71 -271 118 -336
118 -74 1 -168 -36 -222 -86 -26 -24 -56 -31 -119 -26 -38 4 -55 17 -55 46 0
28 -14 40 -60 52 -44 12 -59 7 -53 -17 6 -23 3 -24 -110 -20 l-78 2 2 -45 c4
-65 -10 -77 -86 -77 -106 0 -114 13 -69 101 31 62 80 88 169 89 33 1 68 5 78
9 16 6 15 11 -15 48 -59 74 -106 99 -158 83z m-300 -419 c0 -34 -328 -250
-363 -238 -15 5 64 89 126 135 104 75 237 134 237 103z m1944 -1022 c21 -45
44 -113 52 -151 13 -64 13 -74 -7 -156 -18 -75 -20 -104 -15 -209 7 -126 28
-282 45 -342 6 -19 20 -44 31 -56 23 -24 36 -84 25 -112 -6 -16 -9 -15 -30 12
-13 16 -27 26 -31 22 -4 -4 -10 -47 -12 -95 -4 -86 -15 -122 -26 -86 -3 11
-19 111 -36 224 -17 113 -43 257 -57 320 -24 105 -25 120 -13 170 8 33 15 153
17 298 3 133 8 242 13 242 4 0 24 -37 44 -81z m-1508 -610 c13 -12 24 -33 24
-46 0 -21 -4 -23 -22 -17 -31 9 -110 66 -116 83 -8 24 85 8 114 -20z m1596
-1014 c1 -74 -2 -118 -11 -134 -10 -19 -15 -21 -22 -10 -12 19 -11 61 3 198
14 141 27 117 30 -54z m306 39 c-2 -27 -7 -49 -13 -49 -11 0 -19 79 -10 103
11 30 26 -5 23 -54z m-1320 -590 c12 -8 22 -24 22 -34 0 -26 18 -35 70 -35 64
0 60 -24 -10 -52 -111 -44 -372 -81 -480 -68 -67 8 -120 29 -120 48 0 32 98
91 202 122 118 34 281 44 316 19z m1437 -148 c4 -19 4 -44 0 -55 -12 -39 -25
-21 -25 34 0 61 16 74 25 21z m-1 -178 c11 -54 -21 -163 -54 -183 -29 -18 -20
98 14 178 18 45 31 47 40 5z m-1362 -79 c58 -29 88 -58 88 -85 0 -29 -16 -40
-67 -49 -24 -4 -72 -26 -110 -51 -75 -49 -109 -59 -203 -59 -126 1 -170 36
-170 134 0 64 35 96 124 116 164 37 257 35 338 -6z m-1845 -95 c38 -65 25
-146 -20 -128 -21 8 -32 66 -29 142 2 43 20 38 49 -14z m-252 -69 c0 -22 -5
-40 -12 -42 -9 -3 -13 9 -13 42 0 33 4 45 13 43 7 -3 12 -21 12 -43z m3465
-81 c0 -74 -6 -89 -33 -78 -38 14 -47 92 -17 142 32 52 50 29 50 -64z m350
-186 c24 -3 25 -5 32 -113 3 -60 13 -139 21 -175 9 -36 13 -67 11 -70 -3 -2
-17 11 -32 30 l-27 35 -5 -38 c-3 -21 -9 -39 -14 -40 -14 -3 -24 40 -47 192
-11 74 -26 163 -33 198 l-14 65 41 -40 c23 -22 53 -42 67 -44z m-185 -475 c23
-74 30 -170 15 -188 -38 -46 -60 10 -60 150 0 136 12 146 45 38z m316 -37 c24
-70 18 -104 -12 -67 -23 28 -53 126 -43 142 11 18 32 -11 55 -75z m-1159 -190
c-12 -25 -25 -46 -30 -46 -17 0 -22 30 -11 53 38 72 73 66 41 -7z m-2708 -52
c13 -34 3 -94 -15 -94 -5 0 -9 25 -9 55 0 53 11 72 24 39z m3954 -60 c-2 -22
-7 -39 -13 -39 -12 0 -19 60 -10 83 10 28 27 -3 23 -44z m-4060 -288 c5 -43
-22 -76 -63 -76 -45 0 -45 15 1 69 40 46 57 48 62 7z m4032 -7 c0 -20 -21 -60
-29 -55 -10 6 -12 75 -3 90 5 9 32 -21 32 -35z m-3044 -256 c8 -82 -4 -123
-41 -147 -34 -23 -55 -11 -55 31 0 41 69 208 81 196 5 -5 11 -41 15 -80z"/>
<path d="M4875 6329 c39 -136 173 -421 175 -371 0 21 -68 191 -117 290 -46 91
-72 128 -58 81z"/>
<path d="M2868 4957 c-103 -29 -110 -41 -20 -34 70 6 122 26 122 47 0 13 -12
12 -102 -13z"/>
<path d="M3635 4934 c-23 -24 -16 -68 13 -72 20 -3 22 1 22 37 0 46 -12 58
-35 35z"/>
<path d="M3726 4684 c-3 -9 -6 -46 -6 -82 -1 -137 -36 -204 -127 -238 -132
-51 -276 40 -304 191 -17 93 -20 95 -42 25 -15 -51 -20 -95 -21 -200 -1 -119
1 -139 20 -170 28 -49 73 -62 219 -62 247 0 415 58 415 145 0 62 -74 316 -110
375 -22 35 -35 40 -44 16z"/>
<path d="M1780 4534 c0 -31 20 -94 30 -94 28 0 18 73 -14 99 -14 12 -16 11
-16 -5z"/>
<path d="M1647 4389 c-4 -30 -7 -92 -7 -139 0 -47 -7 -134 -15 -194 -8 -61
-13 -112 -10 -114 11 -11 45 69 56 132 13 80 8 321 -8 350 -8 15 -11 8 -16
-35z"/>
</g>
</svg>
